<svg version="1.1" xmlns="http://www.w3.org/2000/svg" width="975" height="1024" viewBox="0 0 975 1024">
<title></title>
<g id="icomoon-ignore">
</g>
<path fill="none" stroke="#fff" stroke-linejoin="round" stroke-linecap="round" stroke-miterlimit="4" stroke-width="97.5238" d="M731.429 463.238v-146.286c0-134.652-109.158-243.81-243.81-243.81s-243.81 109.157-243.81 243.81v146.286M282.819 950.857h409.6c81.93 0 122.89 0 154.185-15.945 27.526-14.024 49.903-36.401 63.927-63.927 15.945-31.295 15.945-72.255 15.945-154.185v-19.505c0-81.93 0-122.89-15.945-154.185-14.024-27.526-36.401-49.903-63.927-63.928-31.295-15.944-72.255-15.944-154.185-15.944h-409.6c-81.928 0-122.892 0-154.184 15.944-27.526 14.025-49.904 36.402-63.929 63.928-15.944 31.295-15.944 72.255-15.944 154.185v19.505c0 81.93 0 122.89 15.944 154.185 14.025 27.526 36.404 49.903 63.929 63.927 31.292 15.945 72.256 15.945 154.184 15.945z"></path>
</svg>
